<?xml version="1.0" encoding="UTF-8"?>
<svg width="39px" height="39px" viewBox="0 0 39 39" version="1.1" xmlns="http://www.w3.org/2000/svg" xmlns:xlink="http://www.w3.org/1999/xlink">
    <!-- Generator: Sketch 55.2 (78181) - https://sketchapp.com -->
    <title>logo_snow</title>
    <desc>Created with Sketch.</desc>
    <g id="Componentes" stroke="none" stroke-width="1" fill="none" fill-rule="evenodd">
        <g id="logo_snow" fill="#11159A" fill-rule="nonzero">
            <path d="M32.85,15.59 C31.85,15.59 30.85,15.59 29.85,15.59 C26.3,15.59 22.77,15.7 19.22,15.7 C14.69,15.7 10.1,15.56 5.58,15.63 C4.58,15.63 4.06,15.77 4.09,16.46 C4.34,24.38 11.18,28.46 19.22,28.36 C27.22,28.46 34.12,24.36 34.34,16.46 C34.41,15.77 33.9,15.62 32.85,15.59 Z M21.06,16.28 L20.59,17.28 C20.419241,17.9036403 19.9131501,18.3788249 19.28,18.51 C18.81,18.51 18.42,18.11 17.98,17.28 L17.51,16.28 L21.06,16.28 Z M9.31,17.28 C9.13924099,17.9036403 8.63315007,18.3788249 8,18.51 C7.57,18.51 7.14,18.15 6.7,17.28 C7.1,17.17 7.57,17.1 8.07,17 C8.57,16.9 9.01,16.85 9.56,16.78 L9.31,17.28 Z M13.07,17.28 C12.9008865,17.90091 12.399311,18.3754776 11.77,18.51 C11.3,18.51 10.9,18.11 10.46,17.28 L10.18,16.7 C11.18,16.59 12.31,16.52 13.5,16.45 L13.07,17.28 Z M14.23,17.28 L13.8,16.41 C14.92,16.41 16.07,16.31 17.31,16.31 L16.84,17.31 C16.6750161,17.9333725 16.1715414,18.4097371 15.54,18.54 C15.06,18.48 14.65,18.08 14.21,17.25 L14.23,17.28 Z M19.3,27.16 C17.3429094,27.2676994 15.5960776,25.9414019 15.1740376,24.0273263 C14.7519976,22.1132508 15.7790909,20.1753226 17.6,19.45 C17.9977459,19.2135259 18.500957,19.2512562 18.8589928,19.5443981 C19.2170287,19.8375399 19.353327,20.3234079 19.2,20.76 C19.0436121,21.148853 18.7927064,21.4925595 18.47,21.76 C18.3955046,21.905334 18.3577377,22.0667015 18.36,22.23 C18.36,22.7822847 18.8077153,23.23 19.36,23.23 C19.9122847,23.23 20.36,22.7822847 20.36,22.23 C20.3663106,22.0662877 20.3283069,21.9039082 20.25,21.76 C19.9433906,21.480078 19.6982196,21.1395627 19.53,20.76 C19.4059726,20.4361994 19.4418789,20.0728736 19.6268883,19.7796141 C19.8118977,19.4863545 20.1243503,19.2974943 20.47,19.27 C20.6061152,19.2801206 20.7404627,19.3069901 20.87,19.35 C22.6463647,20.1014049 23.6463753,22.0012643 23.2601787,23.8909556 C22.8739822,25.7806468 21.2087423,27.1358085 19.28,27.13 L19.3,27.16 Z M24.3,17.28 C24.3,17.9979702 23.7179702,18.58 23,18.58 C22.2820298,18.58 21.7,17.9979702 21.7,17.28 L21.23,16.28 C22.46,16.28 23.62,16.35 24.74,16.38 L24.3,17.28 Z M28.07,17.28 C27.63,18.11 27.24,18.51 26.76,18.51 C26.1295805,18.3775899 25.6270657,17.9021336 25.46,17.28 L25.02,16.45 C26.25,16.52 27.33,16.59 28.34,16.7 L28.07,17.28 Z M30.53,18.51 C29.8968499,18.3788249 29.390759,17.9036403 29.22,17.28 L28.97,16.77 C29.9336212,16.8761597 30.8890794,17.0465386 31.83,17.28 C31.4,18.12 30.97,18.52 30.54,18.48 L30.53,18.51 Z" id="Shape"></path>
            <path d="M30.21,0 L8.32,0 C3.72955293,0.0109951301 0.0109951301,3.72955293 -4.54747351e-13,8.32 L-4.54747351e-13,30.2 C0.0109951301,34.7904471 3.72955293,38.5090049 8.32,38.52 L30.21,38.52 C34.7959113,38.4981098 38.5081098,34.7859113 38.53,30.2 L38.53,8.28 C38.4863146,3.70971712 34.7804403,0.0216596004 30.21,0 L30.21,0 Z M35.5600046,27.38 C35.5611763,28.4935005 35.3366567,29.5956877 34.9,30.62 C34.4749232,31.6132334 33.863967,32.5160908 33.1,33.28 C31.5412694,34.8557516 29.4164457,35.7416951 27.2,35.7400024 L11.2,35.7400024 C6.59363854,35.7180678 2.86641887,31.9863844 2.85,27.38 L2.85,10.38 C2.85,10.38 2.85,7.38 4.85,6.61 C6.85,5.84 9.52,7.55 12.52,9.8 C15.52,12.05 18.6,15.59 24.2,10.0799953 C28.43,5.92 30.75,5.07999533 32.09,5.07999533 C32.4282552,5.07945497 32.7648992,5.12658513 33.09,5.22 C33.95,5.51 35.47,6.6 35.47,10.33 L35.47,27.33 L35.5600046,27.38 Z" id="cabeça"></path>
            <path d="M32.85,15.59 C31.85,15.59 30.85,15.59 29.85,15.59 C26.3,15.59 22.77,15.7 19.22,15.7 C14.69,15.7 10.1,15.56 5.58,15.63 C4.58,15.63 4.06,15.77 4.09,16.46 C4.34,24.38 11.18,28.46 19.22,28.36 C27.22,28.46 34.12,24.36 34.34,16.46 C34.41,15.77 33.9,15.62 32.85,15.59 Z M21.06,16.28 L20.59,17.28 C20.419241,17.9036403 19.9131501,18.3788249 19.28,18.51 C18.81,18.51 18.42,18.11 17.98,17.28 L17.51,16.28 L21.06,16.28 Z M9.31,17.28 C9.13924099,17.9036403 8.63315007,18.3788249 8,18.51 C7.57,18.51 7.14,18.15 6.7,17.28 C7.1,17.17 7.57,17.1 8.07,17 C8.57,16.9 9.01,16.85 9.56,16.78 L9.31,17.28 Z M13.07,17.28 C12.9008865,17.90091 12.399311,18.3754776 11.77,18.51 C11.3,18.51 10.9,18.11 10.46,17.28 L10.18,16.7 C11.18,16.59 12.31,16.52 13.5,16.45 L13.07,17.28 Z M14.23,17.28 L13.8,16.41 C14.92,16.41 16.07,16.31 17.31,16.31 L16.84,17.31 C16.6750161,17.9333725 16.1715414,18.4097371 15.54,18.54 C15.06,18.48 14.65,18.08 14.21,17.25 L14.23,17.28 Z M19.3,27.16 C17.3429094,27.2676994 15.5960776,25.9414019 15.1740376,24.0273263 C14.7519976,22.1132508 15.7790909,20.1753226 17.6,19.45 C17.9977459,19.2135259 18.500957,19.2512562 18.8589928,19.5443981 C19.2170287,19.8375399 19.353327,20.3234079 19.2,20.76 C19.0436121,21.148853 18.7927064,21.4925595 18.47,21.76 C18.3955046,21.905334 18.3577377,22.0667015 18.36,22.23 C18.36,22.7822847 18.8077153,23.23 19.36,23.23 C19.9122847,23.23 20.36,22.7822847 20.36,22.23 C20.3663106,22.0662877 20.3283069,21.9039082 20.25,21.76 C19.9433906,21.480078 19.6982196,21.1395627 19.53,20.76 C19.4059726,20.4361994 19.4418789,20.0728736 19.6268883,19.7796141 C19.8118977,19.4863545 20.1243503,19.2974943 20.47,19.27 C20.6061152,19.2801206 20.7404627,19.3069901 20.87,19.35 C22.6463647,20.1014049 23.6463753,22.0012643 23.2601787,23.8909556 C22.8739822,25.7806468 21.2087423,27.1358085 19.28,27.13 L19.3,27.16 Z M24.3,17.28 C24.3,17.9979702 23.7179702,18.58 23,18.58 C22.2820298,18.58 21.7,17.9979702 21.7,17.28 L21.23,16.28 C22.46,16.28 23.62,16.35 24.74,16.38 L24.3,17.28 Z M28.07,17.28 C27.63,18.11 27.24,18.51 26.76,18.51 C26.1295805,18.3775899 25.6270657,17.9021336 25.46,17.28 L25.02,16.45 C26.25,16.52 27.33,16.59 28.34,16.7 L28.07,17.28 Z M30.53,18.51 C29.8968499,18.3788249 29.390759,17.9036403 29.22,17.28 L28.97,16.77 C29.9336212,16.8761597 30.8890794,17.0465386 31.83,17.28 C31.4,18.12 30.97,18.52 30.54,18.48 L30.53,18.51 Z" id="Shape"></path>
            <path d="M31.91,12 C31.91,12.9388841 31.1488841,13.7 30.21,13.7 C29.2711159,13.7 28.51,12.9388841 28.51,12 C28.5206805,11.0694554 29.2695346,10.3161702 30.2,10.2999705 C30.6525982,10.2973376 31.0875733,10.4752682 31.4085512,10.7943691 C31.7295291,11.1134699 31.91,11.547394 31.91,12 Z" id="olho_direito"></path>
            <path d="M10.02,12 C10.02,12.9388841 9.25888407,13.7 8.32,13.7 C7.38111593,13.7 6.62,12.9388841 6.62,12 C6.6306805,11.0694554 7.37953465,10.3161702 8.31,10.2999705 C8.76259817,10.2973376 9.19757328,10.4752682 9.51855121,10.7943691 C9.83952914,11.1134699 10.02,11.547394 10.02,12 Z" id="olho_esquerdo"></path>
            <path d="M32.85,15.59 C31.85,15.59 30.85,15.59 29.85,15.59 C26.3,15.59 22.77,15.7 19.22,15.7 C14.69,15.7 10.1,15.56 5.58,15.63 C4.58,15.63 4.06,15.77 4.09,16.46 C4.34,24.38 11.18,28.46 19.22,28.36 C27.22,28.46 34.12,24.36 34.34,16.46 C34.41,15.77 33.9,15.62 32.85,15.59 Z M21.06,16.28 L20.59,17.28 C20.419241,17.9036403 19.9131501,18.3788249 19.28,18.51 C18.81,18.51 18.42,18.11 17.98,17.28 L17.51,16.28 L21.06,16.28 Z M9.31,17.28 C9.13924099,17.9036403 8.63315007,18.3788249 8,18.51 C7.57,18.51 7.14,18.15 6.7,17.28 C7.1,17.17 7.57,17.1 8.07,17 C8.57,16.9 9.01,16.85 9.56,16.78 L9.31,17.28 Z M13.07,17.28 C12.9008865,17.90091 12.399311,18.3754776 11.77,18.51 C11.3,18.51 10.9,18.11 10.46,17.28 L10.18,16.7 C11.18,16.59 12.31,16.52 13.5,16.45 L13.07,17.28 Z M14.23,17.28 L13.8,16.41 C14.92,16.41 16.07,16.31 17.31,16.31 L16.84,17.31 C16.6750161,17.9333725 16.1715414,18.4097371 15.54,18.54 C15.06,18.48 14.65,18.08 14.21,17.25 L14.23,17.28 Z M19.3,27.16 C17.3429094,27.2676994 15.5960776,25.9414019 15.1740376,24.0273263 C14.7519976,22.1132508 15.7790909,20.1753226 17.6,19.45 C17.9977459,19.2135259 18.500957,19.2512562 18.8589928,19.5443981 C19.2170287,19.8375399 19.353327,20.3234079 19.2,20.76 C19.0436121,21.148853 18.7927064,21.4925595 18.47,21.76 C18.3955046,21.905334 18.3577377,22.0667015 18.36,22.23 C18.36,22.7822847 18.8077153,23.23 19.36,23.23 C19.9122847,23.23 20.36,22.7822847 20.36,22.23 C20.3663106,22.0662877 20.3283069,21.9039082 20.25,21.76 C19.9433906,21.480078 19.6982196,21.1395627 19.53,20.76 C19.4059726,20.4361994 19.4418789,20.0728736 19.6268883,19.7796141 C19.8118977,19.4863545 20.1243503,19.2974943 20.47,19.27 C20.6061152,19.2801206 20.7404627,19.3069901 20.87,19.35 C22.6463647,20.1014049 23.6463753,22.0012643 23.2601787,23.8909556 C22.8739822,25.7806468 21.2087423,27.1358085 19.28,27.13 L19.3,27.16 Z M24.3,17.28 C24.3,17.9979702 23.7179702,18.58 23,18.58 C22.2820298,18.58 21.7,17.9979702 21.7,17.28 L21.23,16.28 C22.46,16.28 23.62,16.35 24.74,16.38 L24.3,17.28 Z M28.07,17.28 C27.63,18.11 27.24,18.51 26.76,18.51 C26.1295805,18.3775899 25.6270657,17.9021336 25.46,17.28 L25.02,16.45 C26.25,16.52 27.33,16.59 28.34,16.7 L28.07,17.28 Z M30.53,18.51 C29.8968499,18.3788249 29.390759,17.9036403 29.22,17.28 L28.97,16.77 C29.9336212,16.8761597 30.8890794,17.0465386 31.83,17.28 C31.4,18.12 30.97,18.52 30.54,18.48 L30.53,18.51 Z" id="boca"></path>
        </g>
    </g>
</svg>